<svg id="Layer_1" data-name="Layer 1" xmlns="http://www.w3.org/2000/svg" viewBox="0 0 1920 1142.2"><defs><style>.cls-1{fill:#006d9c;}.cls-2{fill:#024963;}.cls-3{fill:#d6a2c8;}</style></defs><path class="cls-1" d="M1906.33,736.39c-4.41-.48-6.16-2.91-10-4.92-7.85-4.1-18.2-3.2-27.2-4.2-3.41-.38-6.47-2.63-9.85-2.59-2.66,0-4.39,1.74-6.87,2.28-2.32.5-4.55-.15-6.89.1-3,.32-5.12,2-8,2.51-7.89,1.39-20.72-.53-26.41-6.06a45.74,45.74,0,0,1-8-10c-2-3.75-2.35-10.15-6.78-11.76-9.72-3.52-20.46,4.87-30,4.75-9-.12-19,1.56-26.61-2.29-5.67-2.85-10.7-2.29-17-2.3-5.83,0-9.51-.93-14.93-2.1-5.61-1.2-11-.85-16.72-2.49-4.79-1.37-9.45-2.84-14.17-4.08-6-1.58-12.49-1.33-18.5-2.74a115.71,115.71,0,0,1-13.78-4.66c-10-3.81-18.92-.82-28.71,2.58-10.23,3.55-18.83,9.19-29.86,8.92-5.24-.12-10.08-2-14.93-4-1.89-.79-5.11-1.9-6.5-3.44s-.55-3.17-2.52-4.77c-3.06-2.48-8.88-2.43-12.53-4.19-4.55-2.21-7.87-1-12.9-1.9-10.23-1.9-7.51-14.39-17.16-16.28s-22.16.16-32.13.06c-13.52-.14-26.5,6.43-40,4.62-.37-1.53-.59-.72-.64.06-4.23.55-6.81,2.34-11.6,2.34-5.95,0-10.86-1.5-16.64-2.18-3.69-.44-9.34.65-12.52-1.84s-2.42-3-2.93-7.18c-6-.76-10.15-4.7-16.25-5-9.18-.5-17.75,2.2-26.9,2.53-4,.14-16.95-1.58-19.65-4.68-1.42-1.63-1.79-3.47-3.24-5.2-2.12-2.54-6.74-3.45-8.51-6.32-1.46-2.36-1.27-5.14-2.52-7.58s-3.44-4.33-5.24-6.27c-4.36-4.68-11-7.32-11.63-13.77-.19-2.14-.71-6.81.49-8.68,1.49-2.34,4.79-1,4.08-5-.57-3.22-7.28-5.66-9.23-6.94-4.64-3-3.87-2.26-4.46-6.78-.82-6.2-2.21-12.16-2.25-18.5,0-8.48,4.23-15,4.67-23.11.61-11.22-1.42-17.37-9.28-25.1-5-4.92-12.45-7.39-16.31-13.18s-5-12.95-8.33-19c-3.53-6.45-9.85-10.17-14-16.19-8.15-11.77-19.16-9.07-32.55-9.07-13.66,0-26.94-.39-40.38,1.79-9.55,1.54-13.59,3.18-23,7.19-12.68,5.38-22.76,9.57-35.8,9.34s-24.1,5.78-34,13.66c-5,4-6.07,9.66-12,12.33-4.65,2.1-10.62,5.14-15.57,6.28-8.38,1.93-16.33,2.24-25.21,2.24s-22.11-2.72-30,1.67c-6.39,3.54-10.17,10.65-16.59,14.06-4.25,2.26-9.24,2.52-13.49,4.81-6.4,3.47-10.84,4.84-18,4.72-4.76-.08-11.59,1.43-16.12.17-6.64-1.85-2.75-8.69-9.11-11.3-2.5-1-4.5.28-6.94-.17-3.21-.6-4.17-2.86-6.89-4.33-3.92-2.11-9.46-2.56-13.67-4.35s-7.89-4.5-12.22-6c-2.2-.75-6-.89-8.15-2-2.78-1.48-5.8-7-9.14-6.15-1.23.29-2.47,3.54-3.22,4.29-3.79,3.77-8,4.44-13.27,4.65-6.11.24-12.3-.05-18.43-.05-6.29,0-14.38,1.48-20.38,0a5.78,5.78,0,0,1-4.42-.44,9.4,9.4,0,0,0-2.64-3.8c-1.33-.79-3.31-.4-4.67-.45-5.7-.2-10.6-2-16.11-2.31-3.92-.23-6.21.49-9.25-2.7-3.44-3.61-2.06-7.45-2.23-12.16-.52-14.46-11.13-13.68-22-17.86-8.41-3.25-18-3.86-26.85-6.9a74.71,74.71,0,0,1-15.53-6.88c-7.83-4.6-16.42-3.77-25.09-5.7-6.41-1.43-6.11-2.49-9.86-7.52-3.28-4.39-8.34-6.23-13.22-8.56-5.25-2.5-11.1-3.21-16.17-5.05-4.29-1.55-5.73-4.48-4.71-9.29,1.72-8.17,22.59-9.54,14.09-18.5-2.7-2.85-8.26-5.61-11.58-8-2.54-1.82-6-2.32-8.69-3.9-6-3.5-10.59-7.9-16.64-11-6.32-3.21-14.78-7.72-21.82-9-4.58-.83-8.12-.48-12.63-1.94-3.9-1.25-7.45-2.69-11.49-2.91-5.31-.29-10.91.89-16.08-.46a39.5,39.5,0,0,0-12-1.78c-9.27.05-18.39.94-27.05-2.31-4.28-1.61-8.09-4.82-12-6.42-3.64-1.51-9.32-.52-13.27-.47-7.56.1-16.76-2-18.46-10.24-1.09-5.32,1.43-10.05-1.59-15.14-1.8-3-3.87-6-5.72-9.07-1.36-2.25-3.53-4.05-4.77-6.38-1-1.86-.78-3.36-1.55-5.17-1.52-3.56-2.44-4.78-2.35-9.13.1-5.07-.28-9.25-2.31-13.89-1.94-4.43-3-5.81-7-8.5-6.48-4.37-14.75-11.76-18.32-18.95-1.89-3.82-4-6.22-6.38-9.64-3.3-4.78-1.84-10.45-2.69-15.63-.65-4-3-12.92-8.91-8.83-3.07,2.14-2.79,12.36-2.7,15.72.08,3.2,1.16,5.82-2.12,7.11-2.43.94-5.54-.83-7.18-2.35-5.23-4.88-7.09-14.42-8.55-20.88-1.84-8.17-2.37-23.2,1.15-30.33,2.39-4.84,12.29-24.24,5.39-27.21-8.45-3.65-16.9,5.93-25.49,4.8-12.34-1.63-6-17-4.42-25.37.77-4.19-.15-9.43-.12-13.73,0-5.13-1.06-7.06-2.36-11.36-2.12-7-2.43-8.91-9.12-13.34-4.77-3.16-7.68-6.89-12.46-10.15-7.41-5.06-12.8-12-19.75-17.47-4.4-3.45-7.29-7.78-11.55-11.59-3.6-3.22-8.23-6.83-9.25-11.89-.81-4.08.18-9.57.18-13.78S311,35,310.05,31c-.86-3.64-3-7.46-4.15-11.37-7-23.75-36.6,2.67-51.09,2.3-5.5-.14-10.8,1.57-16.09,2.81-5.66,1.32-9.34,4.43-14.23,7.06-3.25,1.75-6,1-9.3,1.55-2.16.37-6.74,2.94-8.79,2.59-4.26-.72-3.62-5.4-6-7.8-4-4.06-11.75-.34-16.93-3.29-3.3-1.88-5.33-3.84-9.08-5.21-5.28-1.93-9.33-2.93-13.89-6.4-1-.78-2.46-1.69-3.95-2.66a70.69,70.69,0,0,1-16.7,5.9c2.36,5.37,3.84,11,.26,12.5-4.37,1.9-7.28-1.8-11.07,2.59-2.89,3.35-3.33,6.58-7.36,8.73-9,4.8-19.56.32-28.82,4.8-4.32,2.09-7.66,5.32-12.07,7.25s-5,1-7.29.06a45.31,45.31,0,0,1-5.81.44,42.53,42.53,0,0,1-4.36-.28l0,.52a13,13,0,0,1-6.17,1,82.1,82.1,0,0,1-11.44-2.8C40.65,49.93,35.69,45,30.85,42.64,25,39.73,17,41.31,11.32,38c-4.88,3.71-5.55,5-4.08,11.37A66.22,66.22,0,0,1,9,65.6c0,7.26-2.09,18.49.4,25.26,3.17,8.6,14.63,13.15,22.06,16.71,3.1,1.49,7.74,1.48,10.67,3.87,2.34,1.9,6.41,8.58,1.48,9.57-1.47.3-5.52-2.27-7-2.64-2.2-.53-4.69-1.17-6.89-1.72-4.37-1.09-6.72-.68-10.53-2.73-.15-.08-.23-.16-.37-.24a35.73,35.73,0,0,1,.67,4,21.47,21.47,0,0,1-.51,5.41,9.21,9.21,0,0,1-.56,2A20.61,20.61,0,0,1,16,130a12.63,12.63,0,0,1-4.59,4.59l-.46.2c.89,2.31-1.17,3.26-2.05,6.49s.74,5.09,1.84,7.58a86.47,86.47,0,0,1,5.1,15.52c3,12.54,7.24,24.58,9.76,37.26,1.36,6.87,1.06,15.71,4.6,22,2.95,5.17,8.37,9.87,13.26,13.17,4.17,2.81,9.06,5.44,12.12,9.69a24.86,24.86,0,0,1,3.27,7.14h-.25a12.63,12.63,0,0,1,.69,1.1c.61,1.22,1.1,2.5,1.61,3.76.11.26.2.52.29.79a11.72,11.72,0,0,1,.36,1.64,36.55,36.55,0,0,1,.55,4.9,12.6,12.6,0,0,1-.29,2.23,26,26,0,0,0,.55,6.62c.81,3.11,1.63,4.59,1.78,8,.28,6.39,3.1,12.24,4.59,18.38,3,12.12,5.45,25.72,16.09,33.31,2,1.42,4.18,2.61,6,4.51,3.52,3.63,2.52,3.29,3.11,8.13.82,6.66,5,11.48,10.6,14.92,6.81,4.17,13.72,6.76,12.48,16.14-.34,2.52-11.31,12.31-2.34,9.13,3.15,1.05,4.35,3.9,6.87,5.55,2.27,1.48,5.34,2.34,8.06,3.61,5.71,2.65,14.41,5.11,16.71,11.46,2.43,6.67,6.78,12.62,11.38,18.43,6.42,8.1,14.09,11.55,23.52,15.49,4.82,2,15.66,5.57,20.86,2.55,2-1.14,3-4.41,4.47-6.11a53.69,53.69,0,0,1,5.06-4.46c4.86-3.85,11.95-5.31,11.13,2.85-.51,5.15-3.13,10.93-5,15.81-1.11,2.94-1,7.08-2.15,9.62s-4,2.91-4.67,5.53c-2.22,8.33,11.63,6.66,15.83,6.9,6.24.34,11.56,4,17.7,4.74,8,1,16,1.16,24,3.27,6.88,1.84,12.86,7.72,14,15,.67,4.1.67,11.27-1.72,14.41-2,2.61-4.83,2.46-5.5,6.21-.53,2.91,1.57,6.62,2.53,9.24,1.94,5.33,4,9,9.06,12.05,4.71,2.86,11.69,4.15,13.72,10,1.52,4.36.13,11.22.17,15.88.06,6.43-1.28,13.38-2.79,19.58-1,4.18-4.75,10.87-4,15.21-5.18-3.81.59-12-3.6-15.17-3.33-2.49-13-.06-14.66,3.53-3,6.64,1.55,10.1,5.56,13.8,5.27,4.85,6.86,10.37,8,17.08.5,2.83,1.83,4.15,2.43,6.72.52,2.29-.35,4.61.33,7,.94,3.26,3.62,5.18,5.09,8a41.18,41.18,0,0,1,3.12,9.85c1.39,6.93-.37,11.64,3.66,17.76a36.64,36.64,0,0,0,9.75,10.06c4.3,3,10.47,4.41,14.79,7.66,4.58,3.44,9.55,8.89,13.21,13.39,6.11,7.52,10.67,19.15,11.88,28.57a59.61,59.61,0,0,0,2.53,11.31c1.26,3.52,4.2,4.95,6.21,8.12A77.71,77.71,0,0,1,372,770.85a73.26,73.26,0,0,0,6.77,18.31c2.18,4.27,5.94,8.34,9.19,12,7.94,9,20.69,15.53,32.24,19.13,6.17,1.93,10.93,1.77,15.93-1.78,7.75-5.48,20.24.44,30,.52l.39-1.9c4.25-1.55,9.2.77,13.51-.27,4.14-1,6.09-3.28,11.13-2.07.75,9.19-11.23,15.36-16.66,20.45-2,1.92-6.44,7.9-3.43,11,1.63,1.69,8.71.35,11.13.35,8,0,14.58.24,20.68,5.93,3.23,3,3.76,6.48,9.19,5.72,4.11-.58,6.92-3.36,11.48-2.57,10.9,1.9,9.19,9.69,9.19,18.48,0,3.45-.1,6.9,0,10.34a15,15,0,0,0,1.82,7.22c-1.71,4.56-2.76,8.25-2.8,11.24,0,.19,0,.46,0,.66a28.27,28.27,0,0,0,1.89,3.29l.37.37c.47.3,1,.52,1.46.81,1.2,0,2.41,0,3.61.12A37.88,37.88,0,0,1,551.55,911c-.1-.12-.22-.23-.31-.35a42.31,42.31,0,0,0,7.29.23c10.61-.06,16.85,1,25.63-5.73,13.61-10.45,25.47-22.69,39.14-33.19,8.34-6.4,18.21-11,28.9-8.8,9,1.88,17,6.34,25.89,8.66,7.62,2,13.8,2.23,21.71,2.29,9.62.08,18.44-2.27,28.25-2.28,5.69,0,12.74-1.12,18.33-.12,5.21.93,8.08,2.5,13.78,2.41,4.67-.07,7.25-.13,11.43,1.68,8.83,3.83,18.22,6.36,27.55,8.68,6.76,1.69,16.55,2.63,23-.49,7-3.38,9.66-10.47,14.85-15.7,6.76-6.8,14.4-5.23,23.08-5.63,7.07-.33,10.41-5.35,16.46-8.7,7-3.88,16.28-5.39,23.71-7.29,9.14-2.34,6-9.19,6.85-16.24,1-7.77,7.61-11.18,13.2-15.9a155.16,155.16,0,0,1,17.85-13.33c6.13-3.85,10.57-5.83,14.36-12.13,4.09-6.8,6.14-14.47,12-20.61,6.19-6.51,11-12.33,18.86-16.48,6.09-3.21,9.62-8,14.73-12.26,4.25-3.51,9.32-6.19,13.81-9.38,27.85-19.8,55.27-40.42,85.4-56.69,11.38-6.14,11.79-19.17,19.41-29.11,2.85-3.72,4.27-8,6.89-11.72,1.66-2.36,4.42-4.36,6.32-6.72,2.68-3.35,10.21-13.95,15.1-13.83,5.27.13,4.16,12.5,3.14,17-1.21,5.35-7.31,10.22-3.07,16.1,2,2.83,6.59,4.53,9.07,7,2.16,2.16,3.5,4.84,5.68,7,5.09,5,4.57,7.2,11.49,8,4,.47,10.26.55,11.75,4.48.53,1.37-.26,5.42-.26,7,0,4.52,0,9,0,13.55,0,13.77-.9,27.89-.06,41.64.21,3.52,1.93,5.76,2.48,9.13.39,2.43-.24,4.4.39,6.9.19.76.5,1.54.72,2.31-.14.12-.25.3-.39.43.11.14.3.21.4.36a9.63,9.63,0,0,1,2.23,4.25l-.84-2c1.43,3.35,3.16,6.56,4.65,9.89a12.77,12.77,0,0,1,1.64,5.67c3.78,6.28,8.53,11.2,13,17.37,3.62,5,3.83,10.92,6.14,16.37,1.6,3.79,3.86,7.85,5.83,11.44,4,7.4,8.06,14.9,12.49,22.08,5,8.06,7.27,18.16,13.74,24.88,10.08,10.47,19.67,21.3,29.89,31.07a109.38,109.38,0,0,0,29.94,19.64c5.25,2.2,11.22,1.74,16.72,3.28,7.9,2.2,15.56,4.48,23.8,5.29,6.63.65,13.81,1.19,20.42,2.1,4.15.57,7.13,2.37,11.53,2.55,3.61.15,6.29-.42,9.7.39,5.76,1.35,10,1.57,16.26,1.79,5,.18,8.79,2.08,13.61,2.34,9.23.5,19-1.67,27.62,1.68a39.15,39.15,0,0,1,15.46,10.32c2,2,5.34,5.54,8,5.86,3.39.4,7.36-1.92,10.92-3.49,8.54-3.76,15.25-3.81,23.47,1,9.88,5.74,13.74,15.74,19.54,24.27,2.19,3.23,4.34,2.94,7.52,4,4.14,1.35,6.76,3,11,5.23,8.31,4.39,9.88,11.6,14.86,19.53,1.67,2.65,3.89,5.32,5.71,7.91,1.55,2.22,3.92,4.23,5.33,6.39,1.78,2.74,1.4,4.06,2.61,6.88a72.4,72.4,0,0,0,6.92,11.36c3.51,5,7.53,7.41,13.32,8.8,3.61.86,7.77-1,9.35,2.65,2,4.54,3.36,16.92,2.14,20.84,11.75,3.44,22.42,9.24,32.73,15.5,8.24,5,21.1,2.87,31.07,2.87,4.68,0,9.73-.56,14.35,0,4.06.45,6.1,2.32,9.71,4.08,3.84,1.87,6.81,2.83,9.3,6.9,2.25,3.69,9-5,9-.52l87.6,38.86,118.82-390.38C1909.51,747.5,1913.17,737.14,1906.33,736.39Z"/><path class="cls-2" d="M1172.67,484.61a25,25,0,0,0-6.39,1.56c-9.06,2.69-19,3.05-27.83,6.35-5.33,2-11.69,6.5-17.59,4.27-1.88-.72-3.76-1.73-5.78-1.84a9.45,9.45,0,0,0-6.79,1.94c-1.31.87-3,1.13-4.27,2.06a28,28,0,0,0-3.31,3.22c-2.18,2.13-4.71,3.72-6.82,6-3.64,3.87-5.9,8.33-10.36,11.22-2.82,1.83-6.19,2.59-9.21,4-2,1-4.22,1.12-6.29,2a18.05,18.05,0,0,1-5.14,1.64c-1.82.18-3.54-.22-5.36.14a28.2,28.2,0,0,1-6,.63c-6.9,0-13.75.21-20.61.77a9.18,9.18,0,0,0-8.67,9.62c.46,8.1,13.51,8.2,19.23,8.05,4.39-.11,7.84-3.39,11.42-5.67,2.91-1.84,6-2.83,9.17-4.16,5.51-2.33,9.69-5.45,15.82-5.42,4.41,0,8.63.55,13,.78s7.55,1.43,11.76-.47a13,13,0,0,0,6.37-5.48c2.06-3.09,4.39-6.89,8-8.06a7.56,7.56,0,0,1,5.18,0,10.87,10.87,0,0,1,2.4,2c.76.72,2.57,1.78,3.07,2.6,1.49,2.43-3.13,10.63.92,11.1,1.35.15,3.77-1.6,4.8-2.44,1.24-1,2.64-2.15,3.82-3.2,1.46-1.28,2.22-3,3.74-4.23a55.62,55.62,0,0,1,4.61-3.85c1.39-.9,2.59-1.16,3.81-2.34,2.35-2.26,5.27-3.64,7.61-6a35.21,35.21,0,0,1,7.2-5.82c2.3-1.35,3.58-3.61,5.81-5,4.54-2.89,10-3.88,9.79-10.4-.06-1.7-.65-4-2.34-4.8A15.49,15.49,0,0,0,1172.67,484.61Z"/><path class="cls-2" d="M1206.89,579c2.85-2.19,5.75-5.94,5.77-9.64,0-2.43-1.05-4.1-3-5.65-1.11-.88-3.23-2.45-4.86-2.48-.22-.47-.26-1-1.72.14-6.67,5-9.36,13.27-15.61,18.83-1.78,1.59-3.66,2.1-5.19,3.95s-2.91,4.09-5.42,4.31c-.6-1.5-3.38-3.18-4.74-3.94a24,24,0,0,0-7.47-2.19c-3.87-.58-2.3,5.57-1.74,7.83.91,3.68,2.43,7.32,3.56,11,1.32,4.34,5.41,6.71,6.25,11.39.36,2-.6,3.7-.86,5.59a19.92,19.92,0,0,1-1.38,5.42,49.73,49.73,0,0,0-3.44,13c-.33,2.81,0,5.93,0,8.76,0,1.77-.15,3.18.58,4.8a20.36,20.36,0,0,1,1.82,4.82c.19,1.07.5,3,2.19,2.28,1.07-.46,2.54-3.73,3.39-4.68,3.88-4.33,6.8-9.49,11.83-12.62,3.88-2.41,5.16-7.29,8.57-10.23,1.48-1.27,3-2.15,4.41-3.57,1.6-1.61,4.49-3.54,5.46-5.59a16.88,16.88,0,0,0,.76-9.62c-.92-3.83-5-3.43-7.86-5.38-2-1.37-4.15-4-3-6.62.6-1.4,2.78-1.87,4-2.56,1.81-1,3.63-1.5,5.46-2.42,1.41-.71,3.52-1.3,4-3,.74-2.35-1-3.51-2.45-4.62a7.06,7.06,0,0,1-2.22-3.6C1203.63,580.16,1205.3,580.22,1206.89,579Z"/><path class="cls-2" d="M408.42,675a3.47,3.47,0,0,0-4,1.51c-.88,1.61-.07,3.71-.45,5.5-2.8.93-7.15-1.54-8.76-3.84-2.25-3.22-2.36-7.5-2.36-11.25,0-2.24.21-6-3-3-2.42,2.22-3.39,5.76-3.38,8.84,0,2.25-.27,4.12.76,6.2.83,1.66,1.56,3.37,2.42,5,1.49,2.87,3.2,5.1,2.48,8.58-.37,1.8-1.59,2.19-1.68,4.18a17.43,17.43,0,0,0,0,3.82c.62,3.07,3.19,6.13,4.66,8.84,1.37,2.52,1,5.15,1,8,0,3.44-.23,7,0,10.39.09,1.5.76,2.18,1.25,3.58a12.46,12.46,0,0,1,.37,4.4c0,3.14,0,6.29,0,9.43s-.6,6.91.14,10c.68,2.82,2.14,5.57,2.86,8.43a58.44,58.44,0,0,0,3.22,9.27,46.7,46.7,0,0,1,3.58,12.69c.46,3.33.69,9.53,3.6,11.9,1.87,1.52,4.31,1,6.64,1.5,1.12.27,1.33,1,2.75.88a10.52,10.52,0,0,0,2-.66c.91-.23,1.71,0,2.61-.13a74,74,0,0,0,10.61-3.27c2-.7,4.05-.94,6.12-1.54,3.59-1,6.63-2.92,10.11-4.27,2.62-1,7.12-2.61,9.74-.62s5,4.34,8,5.87c3.36,1.7,6.3,1.36,10,1.4a17.94,17.94,0,0,0,5.88-1.21c2.38-.72,2.89-1.67,4.05-3.74,2.41-4.29,3.59-9.56,6.6-13.44,4.22-5.44,6.43-12.46,12.29-16.7,9.43-6.84,6.63-20,6.73-30.13.12-12.2-8.47-20.76-13.27-31.33-1.06-2.33-2.66-4.52-3.37-7s-1.2-5.19-2-7.76c-1.48-5-2.31-10.53-.26-15.45a104.09,104.09,0,0,1,5.84-12.41c1.82-3.15,4.66-6.21,5.9-9.61,1-2.87,1.89-6.59,2.66-9.58.88-3.44.79-6.43-1.12-9.46a15.13,15.13,0,0,0-4.58-5c-3.11-2.09-5.29-2.26-9-2.81-3.18-.48-5.13-.5-8.06-2a63.58,63.58,0,0,1-7.05-4c-2.69-1.82-2.68-5.19-3.89-8a26.18,26.18,0,0,0-3-5.56c-1.68-2.25-4.12-3.47-5.88-5.62a18.91,18.91,0,0,0-8.87-6.11c-1.86-.59-3.82-.36-5.72-.35-2.49,0-5.07-.22-7.43.73-6.32,2.54-11.91,9.89-13.23,16.52-.62,3.14.66,6.59-.24,9.65-1.12,3.79-5.61,7.22-5.48,10.74-2.53,2.6-4.48,4.8-5.86,8.12a59,59,0,0,0-3,10.12c-.68,3-1.29,6-1.8,9-.33,2-1,4.35-.44,6.4.38,1.43,1.27,2.7,1.71,4.12s.23,2.65.54,3.87c.44,1.71,1.2,2.71.7,4.6-2,.06-3.69,2-5.47,2.75C410.87,677.17,410.84,675.66,408.42,675Z"/><path class="cls-2" d="M375.21,567.76c-3-.06-7.6-1-12.79,1.59a43.35,43.35,0,0,1-6.31,8.77c-2.07,2.37-3.65,4.79-6,6.88-1.67,1.46-2.22,2-4.46,2a28.13,28.13,0,0,1-5.5-.4c-1-.22-2.17-.16-3.13-.37-.52-.12-1.9-.94-2.4-.71-1.19.54-1,2.06-1,3.08,0,2.89.13,6.68,2.21,8.84,2.52,2.63,6.63,1.63,9.85.74.74-.21,2.27-.91,3-.64,1.43.58,1,2.68,1,3.8,0,4.77,0,9.53,0,14.3,0,3.29.53,7.14-.18,10.36a13,13,0,0,0,.78,9.17c1.55,3.79,2.74,7.58,5,11,2.35,3.6,5.82.76,6.8-2.47a65.38,65.38,0,0,0,2.8-19.93c0-4-.43-8.23,0-12.18.34-3.51,3.5-6.92,6.26-8.84,2-1.37,4.89-2.19,6-4.41a17.25,17.25,0,0,0,1.18-2.75c.41-1.51-.22-3.17.14-4.66s1.09-2.06.86-4c-.19-1.54-.83-2.29-.81-4,0-3.41,1.61-6.18,1.59-9.6C380,569.55,379.52,567.84,375.21,567.76Z"/><path class="cls-2" d="M169.63,419.6c1.87,2.32,5.6,4.13,8.5,4.89a10.62,10.62,0,0,1,4.14,1.71,7.37,7.37,0,0,0,3,1.51c3.28.59,5.53-.62,8.4-2,2.35-1.15,4.75-2.7,5.41-5.28.5-1.92.6-4.59-.82-6-1.75-1.75-3.62-.5-5.82-1a21.63,21.63,0,0,0-2.76-.85c-1.47-.15-2.59-.55-4-.78-1-2.78-7.42-3.57-9.38-5.76-1.18-1.31-2.38-2.75-3.45-4.17a43.34,43.34,0,0,1-2.27-4.1,4,4,0,0,0-2.46-2c-1.93-.84-2.94-1.16-4.26.61s-4.65,8.71-2.18,10.59a12.91,12.91,0,0,0,3.92,7.53C167.1,416.11,168.26,417.89,169.63,419.6Z"/><path class="cls-2" d="M52.24,72.47c-.77-.21-.7-.53-1.75-.65a16.49,16.49,0,0,1-2.42-.16,12.88,12.88,0,0,1-4-2,22.44,22.44,0,0,1-2.58-2.4c-1.34-1.3-.92-1.62-1.56-3.22-1.21-3.06-5.66-4.08-8.5-3.24-.05.22-1.69,3.64-1.74,3.86-3.94,1.08-3.88,1.56-4.79,5.38a37.45,37.45,0,0,0-.8,9c0,2.75-.36,4.14,2,5.92,1.64,1.24,3.85,2.89,6,2.87,4.58,3.2,7.43,5.61,13,5.6,4.78,0,9.31-.3,13.44-3,2.29-1.51,3.91-5.17,4-7.8,0-1.37.29-3.27-.38-4.43S60,76.52,58.94,75.84A20,20,0,0,0,52.24,72.47Z"/><path class="cls-2" d="M737.06,507.87c1.94.36,3.81,1.12,5.8,1.17a26,26,0,0,1,3.42.07c1.81.28,3.53.18,5.33.36a28.27,28.27,0,0,1,5.7,1.09c2.19.7,3.87,2.47,5.93,3.45a16.82,16.82,0,0,1,4.32,2.91c.65.62,1.89,1.86,2.94,1.66,1.52-.3,2.58-3.47,2.72-4.78a17.39,17.39,0,0,0,0-3.95c-.22-1.32-1.22-2-2-3a8.67,8.67,0,0,0-4.69-3.65,37,37,0,0,0-7.47-2.08,41.46,41.46,0,0,0-8.31-.83c-5.13,0-10.25,0-15.37,0-1.24,0-2.53.11-3.76,0-1-.08-1.88-.43-2.89-.45a25,25,0,0,0-6.24.3,6.31,6.31,0,0,0-3.76,2.7c-1.42,2.23,1.28,3.64,3.12,4.09C726.8,508.16,732.06,506.91,737.06,507.87Z"/><path class="cls-2" d="M805.72,536.47c1.32-.2,1.64-1,2.38-2.11a11.61,11.61,0,0,0,2.09-4.15,10.17,10.17,0,0,0-.85-5,7.43,7.43,0,0,0-5.38-5.11c-3-.71-7.15.57-10,1.79-2.44,4.25.53,8.4,3.77,11.21,1.6,1.38,3.23,2.85,5.37,3.24A8.79,8.79,0,0,0,805.72,536.47Z"/><path class="cls-2" d="M839.66,547.57a21.73,21.73,0,0,0,5,3c1.51.66,3.22.87,4.69,1.63a10.55,10.55,0,0,1,3.2,2.09l.41.42c1.6,1.22,1.84,3.41,4.24,3.33,3.46-.13,6-2.71,8-5.27.92-1.14,1.59-2.47,2.48-3.64a3.94,3.94,0,0,0,1-2.32c0-.93,0-1.88,0-2.81a2.21,2.21,0,0,0-1.15-2.27,16.68,16.68,0,0,0-2.17-1.68,24.73,24.73,0,0,0-2.7-1.29,46.33,46.33,0,0,0-6-2.34,80.52,80.52,0,0,0-9.09-1.75c-1.93-.23-3.84-.85-5.8-.66-2.5.24-6,1.26-7.65,3.31s.19,4.38,1.6,6.13c.51.63,1.2,1.06,1.73,1.68A16.68,16.68,0,0,0,839.66,547.57Z"/><path class="cls-3" d="M1447,667.43c-.1,0-.19,0-.29.06C1446.62,668.24,1446.72,669,1447,667.43Z"/></svg>